<svg width="379" height="122" viewBox="0 0 379 122" fill="none" xmlns="http://www.w3.org/2000/svg">
<path d="M62.7187 0H16.7448C8.91223 0 1.00001 5.03717 1 16.1189C1 36.9392 15.9841 37.275 24.5774 36.9392V32.2379C24.5774 29.5514 26.2005 29.5514 26.9612 29.5514H62.7187C70.4716 29.5514 76 23.8426 76 14.1041C76 6.31325 70.4716 0 62.7187 0Z" fill="#6500E4"/>
<path d="M40.8488 37H25V67H40.8488C46.9186 67 54 61.2727 54 52C54 42.7273 46.9186 37 40.8488 37Z" fill="url(#paint0_linear_205_38)"/>
<path d="M25 95.149V67C6.22464 67 0.623731 81.2441 0.170199 88.3661C-1.00894 98.8795 4.09288 103.967 10.7144 104.984C20.7597 105.363 25 98.8795 25 95.149Z" fill="#C1157C"/>
<path d="M70.2891 80.9473H53.1504C52.1152 80.9473 51.334 81.2109 50.8066 81.7383C50.2793 82.2461 50.0156 82.998 50.0156 83.9941V105H42.3984V83.9941C42.3984 82.6855 42.5645 81.5137 42.8965 80.4785C43.2285 79.4434 43.668 78.5352 44.2148 77.7539C44.7812 76.9531 45.4258 76.2793 46.1484 75.7324C46.8711 75.166 47.623 74.707 48.4043 74.3555C49.2051 74.0039 50.0059 73.75 50.8066 73.5938C51.627 73.418 52.3887 73.3301 53.0918 73.3301H70.2891V80.9473ZM83.0625 66.8262H75.4453V59.9414H83.0625V66.8262ZM83.0625 105H75.4453V73.3301H83.0625V105ZM124.459 83.8184C124.459 84.873 124.273 86.0156 123.902 87.2461C123.531 88.457 122.926 89.5898 122.086 90.6445C121.266 91.6797 120.182 92.5488 118.834 93.252C117.506 93.9551 115.885 94.3066 113.971 94.3066H100.23V87.0703H113.971C115.006 87.0703 115.807 86.7578 116.373 86.1328C116.939 85.4883 117.223 84.6973 117.223 83.7598C117.223 82.7637 116.9 81.9824 116.256 81.416C115.631 80.8496 114.869 80.5664 113.971 80.5664H100.23C99.1953 80.5664 98.3945 80.8887 97.8281 81.5332C97.2617 82.1582 96.9785 82.9395 96.9785 83.877V94.5117C96.9785 95.5273 97.291 96.3184 97.916 96.8848C98.5605 97.4512 99.3516 97.7344 100.289 97.7344H113.971V105H100.23C99.1758 105 98.0332 104.814 96.8027 104.443C95.5918 104.072 94.459 103.477 93.4043 102.656C92.3691 101.816 91.5 100.732 90.7969 99.4043C90.0938 98.0566 89.7422 96.4258 89.7422 94.5117V83.8184C89.7422 82.7637 89.9277 81.6309 90.2988 80.4199C90.6699 79.1895 91.2656 78.0566 92.0859 77.0215C92.9258 75.9668 94.0098 75.0879 95.3379 74.3848C96.6855 73.6816 98.3164 73.3301 100.23 73.3301H113.971C115.025 73.3301 116.158 73.5156 117.369 73.8867C118.6 74.2578 119.732 74.8633 120.768 75.7031C121.822 76.5234 122.701 77.6074 123.404 78.9551C124.107 80.2832 124.459 81.9043 124.459 83.8184ZM164.684 105H157.066V87.4219C157.066 86.4258 156.891 85.5371 156.539 84.7559C156.207 83.9551 155.748 83.2715 155.162 82.7051C154.576 82.1387 153.883 81.709 153.082 81.416C152.301 81.1035 151.451 80.9473 150.533 80.9473H137.203V105H129.586V77.1094C129.586 76.582 129.684 76.0938 129.879 75.6445C130.074 75.1758 130.348 74.7754 130.699 74.4434C131.051 74.0918 131.461 73.8184 131.93 73.623C132.398 73.4277 132.896 73.3301 133.424 73.3301H150.592C151.549 73.3301 152.555 73.4375 153.609 73.6523C154.684 73.8672 155.738 74.2188 156.773 74.707C157.828 75.1758 158.824 75.7812 159.762 76.5234C160.719 77.2461 161.559 78.1348 162.281 79.1895C163.023 80.2246 163.609 81.4258 164.039 82.793C164.469 84.1602 164.684 85.7031 164.684 87.4219V105ZM206.109 94.3066C206.109 95.6152 205.943 96.7969 205.611 97.8516C205.279 98.8867 204.84 99.8047 204.293 100.605C203.746 101.387 203.111 102.061 202.389 102.627C201.666 103.174 200.904 103.623 200.104 103.975C199.322 104.326 198.521 104.59 197.701 104.766C196.9 104.922 196.139 105 195.416 105H181.676C180.367 105 179.195 104.834 178.16 104.502C177.125 104.17 176.207 103.73 175.406 103.184C174.625 102.617 173.951 101.973 173.385 101.25C172.838 100.527 172.389 99.7754 172.037 98.9941C171.686 98.1934 171.422 97.3926 171.246 96.5918C171.09 95.7715 171.012 95.0098 171.012 94.3066V83.9941C171.012 82.041 171.363 80.3906 172.066 79.043C172.789 77.6758 173.678 76.5723 174.732 75.7324C175.807 74.873 176.969 74.2578 178.219 73.8867C179.469 73.5156 180.621 73.3301 181.676 73.3301H195.416V80.9473H181.734C180.719 80.9473 179.947 81.2109 179.42 81.7383C178.893 82.2461 178.629 82.998 178.629 83.9941V94.248C178.629 95.2832 178.883 96.0645 179.391 96.5918C179.918 97.1191 180.68 97.3828 181.676 97.3828H195.416C196.451 97.3828 197.223 97.1191 197.73 96.5918C198.238 96.0645 198.492 95.3027 198.492 94.3066V59.9414H206.109V94.3066ZM243.99 94.3066C243.99 95.6152 243.824 96.7969 243.492 97.8516C243.16 98.8867 242.721 99.8047 242.174 100.605C241.627 101.387 240.992 102.061 240.27 102.627C239.547 103.174 238.785 103.623 237.984 103.975C237.203 104.326 236.402 104.59 235.582 104.766C234.781 104.922 234.02 105 233.297 105H212.672V97.3828H233.238C234.273 97.3828 235.055 97.1191 235.582 96.5918C236.109 96.0645 236.373 95.3027 236.373 94.3066C236.275 92.2754 235.25 91.2598 233.297 91.2598H221.49C219.811 91.2598 218.385 90.9668 217.213 90.3809C216.041 89.7949 215.084 89.0625 214.342 88.1836C213.619 87.3047 213.092 86.3574 212.76 85.3418C212.447 84.3262 212.291 83.3789 212.291 82.5C212.291 80.8008 212.594 79.375 213.199 78.2227C213.805 77.0508 214.566 76.1035 215.484 75.3809C216.402 74.6582 217.398 74.1406 218.473 73.8281C219.547 73.4961 220.553 73.3301 221.49 73.3301H240.211V80.9473H221.549C221.158 80.9473 220.846 80.9961 220.611 81.0938C220.396 81.1719 220.23 81.2891 220.113 81.4453C220.016 81.582 219.957 81.7383 219.938 81.9141C219.918 82.0703 219.908 82.2266 219.908 82.3828C219.928 82.6953 219.986 82.9395 220.084 83.1152C220.182 83.291 220.299 83.418 220.436 83.4961C220.592 83.5742 220.758 83.623 220.934 83.6426C221.129 83.6426 221.314 83.6426 221.49 83.6426H233.297C235.25 83.6426 236.91 83.9941 238.277 84.6973C239.645 85.4004 240.748 86.2891 241.588 87.3633C242.428 88.418 243.033 89.5703 243.404 90.8203C243.795 92.0703 243.99 93.2324 243.99 94.3066ZM291.422 105H283.805V94.6875H257.027V105H249.41V83.9941C249.41 80.9277 249.938 78.1055 250.992 75.5273C252.047 72.9492 253.512 70.7324 255.387 68.877C257.262 67.0215 259.479 65.5762 262.037 64.541C264.596 63.5059 267.389 62.9883 270.416 62.9883H287.584C288.111 62.9883 288.609 63.0859 289.078 63.2812C289.547 63.4766 289.957 63.75 290.309 64.1016C290.66 64.4531 290.934 64.8633 291.129 65.332C291.324 65.8008 291.422 66.2988 291.422 66.8262V105ZM257.027 87.0703H283.805V70.6055H270.416C270.182 70.6055 269.684 70.6445 268.922 70.7227C268.18 70.7812 267.311 70.9473 266.314 71.2207C265.338 71.4941 264.303 71.9141 263.209 72.4805C262.115 73.0469 261.109 73.8281 260.191 74.8242C259.273 75.8203 258.512 77.0703 257.906 78.5742C257.32 80.0586 257.027 81.8652 257.027 83.9941V87.0703ZM334.195 94.3066C334.195 95.6152 334.029 96.7969 333.697 97.8516C333.365 98.8867 332.926 99.8047 332.379 100.605C331.832 101.387 331.197 102.061 330.475 102.627C329.752 103.174 328.99 103.623 328.189 103.975C327.408 104.326 326.617 104.59 325.816 104.766C325.016 104.922 324.254 105 323.531 105H309.791V97.3828H323.531C324.547 97.3828 325.309 97.1191 325.816 96.5918C326.324 96.0645 326.578 95.3027 326.578 94.3066V84.0527C326.578 82.998 326.314 82.2168 325.787 81.709C325.279 81.2012 324.527 80.9473 323.531 80.9473H309.85C308.814 80.9473 308.033 81.2109 307.506 81.7383C306.979 82.2461 306.715 82.998 306.715 83.9941V114.902H299.098V83.9941C299.098 82.6855 299.264 81.5137 299.596 80.4785C299.928 79.4434 300.367 78.5352 300.914 77.7539C301.48 76.9531 302.125 76.2793 302.848 75.7324C303.57 75.166 304.322 74.707 305.104 74.3555C305.904 74.0039 306.705 73.75 307.506 73.5938C308.326 73.418 309.088 73.3301 309.791 73.3301H323.531C324.84 73.3301 326.012 73.4961 327.047 73.8281C328.082 74.1602 328.99 74.5996 329.771 75.1465C330.572 75.6934 331.246 76.3281 331.793 77.0508C332.359 77.7734 332.818 78.5352 333.17 79.3359C333.521 80.1172 333.775 80.9082 333.932 81.709C334.107 82.5098 334.195 83.2715 334.195 83.9941V94.3066ZM375.621 94.3066C375.621 95.6152 375.455 96.7969 375.123 97.8516C374.791 98.8867 374.352 99.8047 373.805 100.605C373.258 101.387 372.623 102.061 371.9 102.627C371.178 103.174 370.416 103.623 369.615 103.975C368.834 104.326 368.043 104.59 367.242 104.766C366.441 104.922 365.68 105 364.957 105H351.217V97.3828H364.957C365.973 97.3828 366.734 97.1191 367.242 96.5918C367.75 96.0645 368.004 95.3027 368.004 94.3066V84.0527C368.004 82.998 367.74 82.2168 367.213 81.709C366.705 81.2012 365.953 80.9473 364.957 80.9473H351.275C350.24 80.9473 349.459 81.2109 348.932 81.7383C348.404 82.2461 348.141 82.998 348.141 83.9941V114.902H340.523V83.9941C340.523 82.6855 340.689 81.5137 341.021 80.4785C341.354 79.4434 341.793 78.5352 342.34 77.7539C342.906 76.9531 343.551 76.2793 344.273 75.7324C344.996 75.166 345.748 74.707 346.529 74.3555C347.33 74.0039 348.131 73.75 348.932 73.5938C349.752 73.418 350.514 73.3301 351.217 73.3301H364.957C366.266 73.3301 367.438 73.4961 368.473 73.8281C369.508 74.1602 370.416 74.5996 371.197 75.1465C371.998 75.6934 372.672 76.3281 373.219 77.0508C373.785 77.7734 374.244 78.5352 374.596 79.3359C374.947 80.1172 375.201 80.9082 375.357 81.709C375.533 82.5098 375.621 83.2715 375.621 83.9941V94.3066Z" fill="url(#paint1_linear_205_38)"/>
<defs>
<linearGradient id="paint0_linear_205_38" x1="39.5" y1="37" x2="39.5" y2="67" gradientUnits="userSpaceOnUse">
<stop stop-color="#6500E4"/>
<stop offset="1" stop-color="#C1157C"/>
</linearGradient>
<linearGradient id="paint1_linear_205_38" x1="379" y1="84" x2="44" y2="89" gradientUnits="userSpaceOnUse">
<stop stop-color="#6500E4"/>
<stop offset="1" stop-color="#C1157C"/>
</linearGradient>
</defs>
</svg>
